<svg width="71" height="47" viewBox="0 0 71 47" fill="none" xmlns="http://www.w3.org/2000/svg">
<rect width="71" height="47" rx="15" fill="#FFC000"/>
<path d="M37 33C36.7167 33 36.4793 32.904 36.288 32.712C36.0967 32.52 36.0007 32.2827 36 32C35.9993 31.7173 36.0953 31.48 36.288 31.288C36.4807 31.096 36.718 31 37 31H43V17H37C36.7167 17 36.4793 16.904 36.288 16.712C36.0967 16.52 36.0007 16.2827 36 16C35.9993 15.7173 36.0953 15.48 36.288 15.288C36.4807 15.096 36.718 15 37 15H43C43.55 15 44.021 15.196 44.413 15.588C44.805 15.98 45.0007 16.4507 45 17V31C45 31.55 44.8043 32.021 44.413 32.413C44.0217 32.805 43.5507 33.0007 43 33H37ZM35.175 25H28C27.7167 25 27.4793 24.904 27.288 24.712C27.0967 24.52 27.0007 24.2827 27 24C26.9993 23.7173 27.0953 23.48 27.288 23.288C27.4807 23.096 27.718 23 28 23H35.175L33.3 21.125C33.1167 20.9417 33.025 20.7167 33.025 20.45C33.025 20.1833 33.1167 19.95 33.3 19.75C33.4833 19.55 33.7167 19.4457 34 19.437C34.2833 19.4283 34.525 19.5243 34.725 19.725L38.3 23.3C38.5 23.5 38.6 23.7333 38.6 24C38.6 24.2667 38.5 24.5 38.3 24.7L34.725 28.275C34.525 28.475 34.2877 28.571 34.013 28.563C33.7383 28.555 33.5007 28.4507 33.3 28.25C33.1167 28.05 33.0293 27.8127 33.038 27.538C33.0467 27.2633 33.1423 27.034 33.325 26.85L35.175 25Z" fill="black"/>
</svg>
