<svg xmlns="http://www.w3.org/2000/svg" xmlns:xlink="http://www.w3.org/1999/xlink" xml:space="preserve" class="u-svg-content" viewBox="0 0 160 160" x="0px" y="0px" id="svg-9744" style="enable-background:new 0 0 160 160;" data-color="#000000">
  <path fill="#FFC000" d="M10.3,39.9c-18.2,24.9-9.2,62.5,4,87.4c8.2,15.4,23,36.1,48.6,32.2c5.8-0.9,11.1-3.2,16.9-4.3c17.8-3.4,37.9,4.7,54.5-1.5 
  c6.6-2.5,11.6-6.9,15.5-11.8c12.2-15.3,13.7-35.6,3.8-51.9c-6.9-11.5-19-20.9-23.6-33.1c-4.5-11.9-1.4-24.9-4.7-37.1 
  C121.1,5,103.7-5.6,85.7,3.1c-6.8,3.3-12.6,7.7-20,10.2C58,15.9,49.5,16.6,41.6,19C26.8,23.6,16.7,31,10.3,39.9z"></path>
</svg>
